<?xml version="1.0" encoding="UTF-8"?>
<!DOCTYPE svg PUBLIC "-//W3C//DTD SVG 1.1//EN" "http://www.w3.org/Graphics/SVG/1.1/DTD/svg11.dtd">
<!-- Creator: CorelDRAW (OEM Version) -->
<svg xmlns="http://www.w3.org/2000/svg" xml:space="preserve" width="8.83333in" height="8.83333in" version="1.1" style="shape-rendering:geometricPrecision; text-rendering:geometricPrecision; image-rendering:optimizeQuality; fill-rule:evenodd; clip-rule:evenodd"
viewBox="0 0 8833.33 8833.33"
 xmlns:xlink="http://www.w3.org/1999/xlink"
 xmlns:xodm="http://www.corel.com/coreldraw/odm/2003">
 <defs>
  <style type="text/css">
   <![CDATA[
    .fil1 {fill:none}
    .fil0 {fill:url(#id0)}
   ]]>
  </style>
  <linearGradient id="id0" gradientUnits="userSpaceOnUse" x1="4363.74" y1="195.11" x2="4572.88" y2="8880.38">
   <stop offset="0" style="stop-opacity:1; stop-color:#4B075E"/>
   <stop offset="0.588235" style="stop-opacity:1; stop-color:#8925A4"/>
   <stop offset="1" style="stop-opacity:1; stop-color:#C744EB"/>
  </linearGradient>
 </defs>
 <g id="Layer_x0020_1">
  <metadata id="CorelCorpID_0Corel-Layer"/>
  <path class="fil0" d="M4412.48 3046.5c144.6,0 261.82,117.22 261.82,261.82 0,144.6 -117.22,261.82 -261.82,261.82 -144.6,0 -261.82,-117.22 -261.82,-261.82 0,-144.6 117.22,-261.82 261.82,-261.82zm3282.44 1650.8c102.26,0 185.16,82.9 185.16,185.16 0,102.26 -82.9,185.16 -185.16,185.16 -102.26,0 -185.16,-82.9 -185.16,-185.16 0,-102.26 82.9,-185.16 185.16,-185.16zm-204.36 -601c102.26,0 185.16,82.9 185.16,185.16 0,102.26 -82.9,185.16 -185.16,185.16 -102.26,0 -185.16,-82.9 -185.16,-185.16 0,-102.26 82.9,-185.16 185.16,-185.16zm-315.13 -539.63c102.26,0 185.16,82.9 185.16,185.16 0,102.26 -82.9,185.16 -185.16,185.16 -102.26,0 -185.16,-82.9 -185.16,-185.16 0,-102.26 82.9,-185.16 185.16,-185.16zm-385.04 -479.7c102.26,0 185.16,82.9 185.16,185.16 0,102.26 -82.9,185.16 -185.16,185.16 -102.26,0 -185.16,-82.9 -185.16,-185.16 0,-102.26 82.9,-185.16 185.16,-185.16zm-427.43 -428.82c102.26,0 185.16,82.9 185.16,185.16 0,102.26 -82.9,185.16 -185.16,185.16 -102.26,0 -185.16,-82.9 -185.16,-185.16 0,-102.26 82.9,-185.16 185.16,-185.16zm-1547.73 -2107.69c22.41,-23.2 14.31,-44.65 12.24,-52.05 -40.23,-143.82 -241.22,-363.38 -303.59,-461.62 -92.32,52.48 -371.48,426.74 -391.51,548.08 0.71,4.19 15.47,17.49 19.56,21.56 87.42,87.19 166.41,183.16 237.45,284.23 144.22,-109.98 281.3,-229.31 425.85,-340.21zm-87.13 3767.22c111.36,168.73 444.2,434.85 644.44,624.05 126.84,119.83 143.37,110.72 143.37,274.5l0 1272.8 -134.7 0 0 -1247.53c9.77,-106.73 -18.41,-110.87 -68.17,-165.29l-354.82 -338.96c-64.89,-54.68 -221.02,-206.33 -338.83,-316.29 -35.59,18.06 -75.82,28.24 -118.43,28.24 -144.6,0 -261.82,-117.22 -261.82,-261.82 0,-144.6 117.22,-261.82 261.82,-261.82 144.6,0 261.82,117.22 261.82,261.82 0,47.45 -59.04,93.4 -34.67,130.32zm-1158.59 2271.98l0 1748.07 146.79 0 0 -1761.79c96.67,-38.5 165.02,-132.95 165.02,-243.36 0,-144.6 -117.22,-261.82 -261.82,-261.82 -144.6,0 -261.82,117.22 -261.82,261.82 0,127.5 91.14,233.71 211.84,257.08zm4089.35 -530c-189.57,732.4 -1049.57,1567.91 -1070.74,1731.32 46.59,-13.7 88.32,-40.5 114.31,-63.25 215.89,-188.86 397.86,-393.6 575.24,-618.98 301.28,-382.8 561.15,-923.29 591.24,-1463.18 6.25,-112.14 15.98,-281.6 -16.53,-429.54 -165.39,318.36 -171.96,760.28 -193.54,843.63zm-3665.93 -262.93l0 2541 142.83 0 0 -2579.93c74.59,-46.15 124.29,-128.7 124.29,-222.86 0,-144.6 -117.22,-261.82 -261.82,-261.82 -144.6,0 -261.82,117.22 -261.82,261.82 0,142.83 114.37,258.95 256.52,261.79zm-304.2 -1747.06c-233.05,182.7 -630.72,629.28 -761.13,862.16 -79.06,141.17 -113.41,300.22 -113.41,469.16l0 1108.04 -134.7 0 0 -1280.41c32.86,-407.15 307.2,-614.74 477.61,-817.6 50.8,-60.48 98.31,-102.43 165.42,-167.9 83.74,-81.7 151.61,-155.58 252.92,-233.87 13.31,-10.29 23.73,-16.62 31.41,-22.35 -25.31,-40.31 -40,-88.06 -40,-139.24 0,-144.6 117.22,-261.82 261.82,-261.82 144.6,0 261.82,117.22 261.82,261.82 0,144.6 -117.22,261.82 -261.82,261.82 -51.37,0 -99.28,-14.8 -139.93,-39.8zm730.19 1192.67l-0 3095.4 157.19 0 0 -3100.19c102.23,-35.64 175.61,-132.91 175.61,-247.32 0,-144.6 -117.22,-261.82 -261.82,-261.82 -144.6,0 -261.82,117.22 -261.82,261.82 0,120.02 80.74,221.17 190.85,252.11zm479.56 550.6l-0.08 2544.8 139.39 0 -0.17 -2537.11c117.88,-25.5 206.22,-130.4 206.22,-255.93 0,-144.6 -117.22,-261.82 -261.82,-261.82 -144.6,0 -261.82,117.22 -261.82,261.82 0,115.4 74.66,213.36 178.28,248.24zm189.21 -1752.54c75.3,85.98 259.57,266.55 316.88,319.9l227.15 244.8c337.51,382.78 256.76,881.44 254.3,1414.91 -1.59,344.74 -42.73,1033.15 -191.55,1315.86 -111.26,220.63 -280.22,347.43 -307.01,582.48 366.8,-159.74 583.66,-1114.17 611.28,-1435.74 28.57,-275.33 37.86,-926.03 30.61,-1128.14 -12.75,-355.14 -131.13,-648.37 -305.11,-841.95 -96.92,-107.83 -185.39,-201.31 -278.11,-305.28l-261.82 -255.65c24.98,-41.58 39.91,-89.7 39.91,-141.31 0,-144.6 -117.22,-261.82 -261.82,-261.82 -144.6,0 -261.82,117.22 -261.82,261.82 0,144.6 117.22,261.82 261.82,261.82 45.33,0 87.98,-11.52 125.31,-31.71zm-389.33 -2919.41c-114.35,-0.29 -287.41,245.35 -353.69,332.73 -78.59,103.61 -189.45,306.21 -241.79,451.31 -116.22,322.21 -259.47,518.3 -437.84,771.25 -95.11,134.89 -561.59,578.13 -690.87,698.03 -345,320.04 -753.89,680.3 -962.43,1107.34 -104.46,213.94 -174.43,452.84 -222.05,682.36 -78.32,377.51 -59.38,893.74 60.51,1250.85 125.59,374.11 259.7,655.05 453.99,934.52 99.13,142.59 159.91,259.22 295.4,398.71 286.43,294.89 859,655.54 249.57,70.1 -370.65,-356.06 -618.95,-806.26 -801.06,-1281.65 -247.74,-646.76 -205.5,-1272.1 51.73,-1848.44 237.94,-533.11 529.19,-824 950.72,-1195.04 235.3,-195.74 593.65,-555 782.76,-800.7 45.72,-59.41 102.2,-139.1 142.91,-204.08 92.43,-147.54 153.07,-292.37 233.78,-460.98 141.4,-295.4 209.14,-407.65 370.8,-670.68 37.32,-60.72 119.54,-177.81 117.54,-235.63zm-3264.32 5839.9c-6.85,-90.69 -108.87,-247.28 -151.74,-326.03 -63.14,-116 -104.44,-204.15 -151.52,-335.76 -354.13,-989.78 -75.73,-1807.48 479.59,-2528 544.01,-705.85 958.9,-819.02 1465.17,-1205.13 170.32,-129.89 327.89,-257.93 503.56,-384.81 -47.65,135.78 -404.39,473.82 -516.91,586.96 -373.99,332.88 -871.27,677.07 -1152.66,1069.81 -72.93,101.78 -174.14,213.02 -226.59,328.59 -57.97,127.71 -125.07,236.78 -177.66,377.94 -328.73,882.39 -240.46,1878.81 282.83,2654.06 115.26,170.76 363.19,564.96 558.32,562.62 -30.54,-104.83 -196.37,-276.19 -281.7,-380.66 -679.3,-831.63 -810.02,-2067.96 -317.12,-3023.75 114.1,-221.25 388.54,-601.23 564.56,-755.3 184.5,-161.49 311.66,-286.37 521.93,-450.26 66.99,-52.22 122.55,-94.99 186.42,-146.81 187.39,-152.06 548.1,-488.82 647.58,-671.87 104.76,-192.74 337.28,-751.8 335.35,-964.83 -1.6,-175.33 -14.35,-421.09 -197.92,-483.03 0.44,627.76 19.4,938.03 -518.23,1358.74 -545.14,408.19 -970.96,567.83 -1499.31,1083.91 -263.87,257.74 -479.12,540.29 -638.79,874.98 -291.6,611.25 -394.28,1349.08 -173.11,2002.76 46.71,138.06 285.87,738.63 457.94,755.87zm5394.15 -1218.65c2.04,963.65 -167.28,1433.2 -720.76,2084.6 -55.57,65.39 -239.92,243.72 -180.29,312.02 85.69,98.7 389.34,-352.42 438.94,-417.7 257.89,-339.41 420.02,-617.85 533.5,-1144.52 74.17,-346.63 90,-833.96 52.28,-1194.7 -37.17,-355.36 -158.38,-707.38 -306.18,-984.79 -134.34,-252.16 -270.11,-457.01 -456.33,-654.94 -411.26,-445.7 -1013.93,-933.13 -1234.5,-1515.24 -132.54,-349.78 -252.76,-666.7 -15.9,-998.26 131.52,291.65 -47.01,702.93 569.72,1471.91 139.62,174.09 285.93,320.92 453.39,463.44 296.81,299.41 496.54,514.49 760.48,836.18 519.14,632.75 582.81,1400.55 534.06,2161.09 -15.7,244.94 -90.46,464.89 -88.76,469.8 64.89,-1.47 139.55,-202.41 186.55,-471.01 138.49,-791.4 -93.53,-1672.41 -578.22,-2310.52 -374.34,-492.81 -1062.6,-1004.22 -1343.32,-1476.06 -46.48,-78.13 -109.64,-152.04 -126.91,-263.59 11.11,27.99 569.37,591.32 792.44,475.98l-608.73 -463.97c-283.21,-228.39 -314.92,-287.88 -365.18,-714.52 -15.23,-129.28 -13.23,-220.54 7.81,-346.42 17,-101.72 63.15,-210.33 53.36,-316.2 -66.48,15.24 -188.63,175.75 -214.41,252.48 -22.95,68.32 -21.94,126.5 -58.14,176.65 -119.93,166.15 -204.97,226.29 -268.8,466.92 -31.5,118.76 45.26,274.57 85.3,379.97 95.41,251.1 179.94,461.76 316.96,655.66 357.65,506.12 746.8,816.19 1149.3,1266.96 415.11,464.92 631.52,1187.7 632.35,1798.76zm-3147.53 -1110.2c-140.22,117.3 -274.97,269.01 -411.11,371.34 -167.62,126 -117.55,171.58 -129.57,407.24l0 2234.27c-26.39,-14.84 -93.55,-112.05 -174.64,-249.02 -311.07,-525.45 -666.98,-1249.67 -627.26,-1860.06 22.48,-345.44 130.56,-694 299.15,-970.12 250.09,-409.61 753.07,-836.02 1106.78,-1198.96 179.74,-179.86 451.02,-517.1 558.19,-733.14 29.45,-59.37 137.38,-315.22 166.22,-349.55 101.57,165.63 196,589.67 464.23,881.06 123.39,134.04 308.09,380.62 464.28,535.87 268.21,266.61 614.8,586.62 764.91,929.48 169.34,386.78 236.2,638.96 235.93,1111.79 -1.02,1742.85 -948.5,2185.01 -978.05,2546.24 357.73,-61.81 862.43,-1087.83 955.24,-1400.98 198.28,-668.91 235.1,-1388.03 12.6,-2051.61 -183.56,-547.44 -613.42,-959.28 -998.85,-1348.83 -195.22,-197.31 -371.2,-418.24 -521.4,-658.94 -70.61,-113.15 -143.93,-259.13 -187.28,-396.19 -124.56,-393.93 -172.45,-681.36 -410.96,-54.45 -229.33,602.76 -889.87,1158.8 -1339.8,1604.84 -510.33,505.89 -779.76,1037.45 -734.29,1780.85 37.51,613.22 465.01,1471 839.91,1938.4 65.89,82.14 191.44,268.11 319.84,275.24 3.26,-95.55 -74.04,-99.87 -74.02,-161.16l0.57 -2637.03c176.95,-158.53 320.98,-251.91 489.1,-453.05 40.18,24.96 87.53,39.39 138.26,39.39 144.6,0 261.82,-117.22 261.82,-261.82 0,-144.6 -117.22,-261.82 -261.82,-261.82 -144.6,0 -261.82,117.22 -261.82,261.82 0,46.85 12.31,90.82 33.85,128.91zm786.07 4093.62c1231.35,-1.69 2148.28,-479.28 2956.99,-1359.32 868.22,-1095.82 965.86,-2379.42 277.77,-3595.31 -665.81,-1176.49 -1231.09,-1081.29 -1928.24,-1780.01 -382.07,-382.95 -524.89,-970.96 -132.63,-1400.51 154.47,-169.15 332.37,-209.33 382.74,-291.04 -759.22,-110.68 -1150.78,417.94 -1667.74,780.09 -295.46,-474.91 -733.48,-827.76 -1332.6,-783.37 14.95,41.36 201.97,177.81 254.7,232.28 495.4,511.74 350.53,1225.27 -266.13,1606.06 -1099.13,678.71 -2045.27,1214.47 -2351.13,2621.55 -401.54,1847.21 957.93,3256.74 2609.1,3776.58 372.43,117.25 769.84,193.59 1197.18,193.01z"/>
  <rect class="fil1" x="-0" y="-19" width="8833.33" height="8852.33"/>
 </g>
</svg>
