<svg width="210" height="288" viewBox="0 0 210 288" fill="none" xmlns="http://www.w3.org/2000/svg">
<path fill-rule="evenodd" clip-rule="evenodd" d="M0 94.5369C0 100.932 1.23353 107.237 2.59961 112.759C3.26677 115.453 4.07743 117.766 4.91001 120.324C8.72781 132.05 13.9292 143.883 19.7178 154.868L26.4496 167.762C28.897 172.222 31.2194 176.12 33.6306 180.556L41.0417 193.14C41.665 194.296 42.2018 194.958 42.8667 196.157L48.5666 205.622C52.0974 205.355 59.9401 200.745 63.1794 198.36C63.9408 197.8 64.6846 197.001 65.411 196.339C67.6447 194.302 69.8817 191.91 71.4723 189.388C72.0157 188.525 72.4276 187.697 73.0017 186.726C74.0599 184.935 74.7599 182.562 75.4161 180.504C76.2213 177.981 76.3079 176.469 76.8008 173.654C78.3203 164.98 77.2653 161.551 75.6801 153.426C75.0086 149.98 73.8561 147.096 72.8461 143.843C72.6237 143.125 72.5865 142.642 72.3542 141.795C69.0579 129.777 71.3858 120.618 79.2547 110.989L85.2471 104.912C90.0454 100.495 98.152 95.7999 104.167 93.1532C108.456 91.2662 112.752 89.1157 117.27 87.6322C118.976 87.0721 120.575 86.8854 121.075 85.1762C120.079 84.9336 119.585 84.4633 118.572 84.027C112.706 81.5011 103.065 80.1833 96.4496 80.1833V79.8718C98.3887 79.8718 100.89 79.3966 102.938 79.2388C107.259 78.9064 111.523 78.1466 115.475 76.9465L120.732 74.8789C120.433 71.5953 114.666 67.8484 113.892 65.2057L124.495 71.4465C128.082 66.5595 130.309 55.3048 130.309 48.9801H130.651C130.651 56.3521 132.677 65.1907 136.124 71.134C137.909 70.7546 140.018 69.1742 141.449 68.1928C142.405 67.5379 143.141 67.0576 143.993 66.4566C144.915 65.8057 145.37 65.1817 146.726 64.8932C145.005 67.8603 140.741 71.2209 139.886 74.5664C143.124 76.5452 146.562 77.4377 150.914 78.2345C155.271 79.0312 160.14 79.8718 164.512 79.8718V80.1833C158.022 80.1833 142.496 82.3977 140.228 85.4876C140.542 86.5609 142.723 89.2575 143.547 90.2609C144.53 91.4579 146.68 93.5226 147.068 94.8494C144.57 93.6434 138.771 88.8092 136.124 88.6086C135.201 91.7604 132.954 91.5708 131.306 104.808C131.042 106.935 130.651 108.593 130.651 111.075H130.309C130.309 107.328 129.335 102.126 128.631 98.8759C127.235 92.4413 125.245 90.207 124.837 88.6086C122.653 89.1407 117.01 93.7093 114.922 95.1649C110.189 98.4635 105.554 102.343 101.916 106.701C99.0766 110.101 97.2274 112.55 95.7157 116.646C94.2356 120.655 94.1458 125.762 95.6313 129.919C95.8625 130.566 95.9052 130.778 96.1166 131.349C96.4464 132.236 96.4146 131.984 96.6918 132.696L106.321 159.172C106.55 160.474 106.848 161.215 107 162.297C107.999 169.405 108.471 177.301 107.491 184.492C106.327 193.033 103.919 201.294 99.3363 208.88C96.7706 213.125 94.0111 217.405 90.2031 220.83C89.0353 221.881 88.5139 222.706 87.3023 223.8C86.129 224.858 85.2252 225.715 84.0574 226.769C81.541 229.041 72.2973 235.832 69.0875 236.514C69.1959 237.705 70.2662 238.868 70.9049 239.848L95.5327 275.107C97.0029 277.381 98.5574 279.338 100.144 281.51C101.47 283.326 104.123 285.903 104.658 288L135.892 244.727C140.804 237.195 146.009 230.284 150.605 222.579C151.786 220.6 152.924 219.075 154.145 217.071C154.754 216.073 155.385 215.234 155.944 214.344C160.663 206.818 167.862 195.803 171.926 188.36C178.556 176.214 185.157 165.594 191.527 152.571C198.324 138.672 210 113.498 210 97.9693C210 88.1972 209.297 81.0748 206.787 71.8808C205.191 66.0343 202.662 59.5758 199.969 54.6998C198.483 52.0121 197.216 49.647 195.573 47.164C194.74 45.9051 194.025 44.9137 193.225 43.6897C189.287 37.6705 182.939 30.6968 177.249 26.1253C176.516 25.5362 176.276 25.5053 175.538 24.8783C168.837 19.1906 161.186 14.2835 153.001 10.4907C151.373 9.73595 150.229 9.3366 148.551 8.62176C128.474 0.0636948 102.772 -2.5211 80.2363 2.67145C67.8276 5.5308 54.8099 10.4728 44.7083 17.3765C42.1131 19.1496 39.761 20.5903 37.3685 22.5371L30.515 28.142C11.6232 45.7613 0 68.9615 0 94.5369V94.5369Z" fill="url(#paint0_linear_17_203)"/>
<defs>
<linearGradient id="paint0_linear_17_203" x1="105" y1="0" x2="105" y2="288" gradientUnits="userSpaceOnUse">
<stop stop-color="#164885"/>
<stop offset="1" stop-color="#1A6BCC"/>
</linearGradient>
</defs>
</svg> 