<svg width="301" height="163" viewBox="0 0 301 163" fill="none" xmlns="http://www.w3.org/2000/svg">
<path d="M186.469 163H300.25C300.25 163 298.483 138.249 262.087 110.67C225.692 83.0911 186.469 83.4447 186.469 83.4447V163Z" fill="#EEEEEE"/>
<path fill-rule="evenodd" clip-rule="evenodd" d="M0.25 163H186.469V83.4447L160.674 62.2299V140.724H15.091L0.25 163ZM182.582 143.553V88.3948L163.854 72.9923V128.151L182.582 143.553Z" fill="#EEEEEE"/>
<path fill-rule="evenodd" clip-rule="evenodd" d="M224.632 79.5553C228.998 82.864 230.746 84.5589 234.172 87.7483C197.777 60.1692 159.614 60.1085 159.614 60.1085V131.885H149.013V52.3297C149.013 52.3297 188.236 51.9761 224.632 79.5553Z" fill="#EEEEEE"/>
<path fill-rule="evenodd" clip-rule="evenodd" d="M21.0981 131.885H149.013V52.3297L123.218 31.115V109.61H36.9992L21.0981 131.885ZM145.126 112.438V57.2798L126.399 41.8773V97.0357L145.126 112.438Z" fill="#EEEEEE"/>
<path fill-rule="evenodd" clip-rule="evenodd" d="M187.176 48.4403C191.542 51.749 193.29 53.444 196.717 56.6334C160.321 29.0542 122.158 29.7006 122.158 29.7006V100.77H111.558V21.2147C111.558 21.2147 150.78 20.8612 187.176 48.4403Z" fill="#EEEEEE"/>
<path fill-rule="evenodd" clip-rule="evenodd" d="M42.2996 100.77H111.558V21.2147L85.7625 0V78.4946H58.9073L42.2996 100.77ZM107.671 81.3232V26.1649L88.9427 10.7624V65.9207L107.671 81.3232Z" fill="#EEEEEE"/>
</svg>
